<?xml version="1.0" encoding="iso-8859-1"?>
<!-- Generator: Adobe Illustrator 19.0.0, SVG Export Plug-In . SVG Version: 6.00 Build 0)  -->
<svg version="1.1" id="Layer_1" xmlns="http://www.w3.org/2000/svg" xmlns:xlink="http://www.w3.org/1999/xlink" x="0px" y="0px"
	 viewBox="0 0 512 512" style="enable-background:new 0 0 512 512;" xml:space="preserve">
<path style="fill:#AFAFD9;" d="M255.999,19.678C119.484,19.678,8.815,48.172,8.815,83.32v385.883
	c0,12.768,10.351,23.118,23.118,23.118h448.134c12.768,0,23.118-10.351,23.118-23.118V83.32
	C503.185,48.172,392.516,19.678,255.999,19.678z"/>
<path style="opacity:0.1;enable-background:new    ;" d="M32.32,469.203V83.32c0-34.134,104.374-61.989,235.432-63.569
	c-3.896-0.047-7.812-0.073-11.753-0.073C119.484,19.678,8.815,48.171,8.815,83.32v385.883c0,12.768,10.351,23.118,23.118,23.118
	h23.506C42.671,492.321,32.32,481.971,32.32,469.203z"/>
<path style="fill:#FFFFFF;" d="M403.779,70.967c-0.387-0.081-0.765-0.162-1.156-0.243c-41.131-8.469-93.203-13.134-146.623-13.134
	s-105.492,4.665-146.623,13.134c-0.391,0.081-0.769,0.162-1.156,0.243v92.779h295.559V70.967z"/>
<path style="opacity:0.1;enable-background:new    ;" d="M168.14,70.724c33.539-6.906,74.354-11.279,117.241-12.659
	c-9.708-0.313-19.521-0.474-29.382-0.474c-53.42,0-105.492,4.665-146.623,13.134c-0.391,0.081-0.769,0.162-1.156,0.243v92.779
	h58.764V70.966C167.372,70.886,167.75,70.805,168.14,70.724z"/>
<path style="opacity:0.1;enable-background:new    ;" d="M440.228,223.918H71.771c-10.482,0-18.98,8.497-18.98,18.98v202.733
	c0,10.482,8.497,18.98,18.98,18.98h368.457c10.482,0,18.98-8.497,18.98-18.98V242.898
	C459.209,232.416,450.712,223.918,440.228,223.918z"/>
<g>
	<path style="fill:#464655;" d="M440.228,208.64H71.771c-10.482,0-18.98,8.497-18.98,18.98v202.733
		c0,10.482,8.497,18.98,18.98,18.98h368.457c10.482,0,18.98-8.497,18.98-18.98V227.619
		C459.209,217.137,450.712,208.64,440.228,208.64z"/>
	<path style="fill:#464655;" d="M223.866,163.746c0-17.747,14.387-32.134,32.134-32.134s32.134,14.387,32.134,32.134H223.866z"/>
</g>
<path d="M174.107,501.135c4.868,0,8.815-3.947,8.815-8.815c0-4.868-3.947-8.815-8.815-8.815H31.932
	c-7.887,0-14.303-6.416-14.303-14.303V83.32c0-12.914,32.511-32.337,103.891-44.464c4.799-0.816,8.03-5.366,7.214-10.166
	c-0.816-4.799-5.369-8.028-10.166-7.214C74.286,28.999,0,47.039,0,83.32v385.883c0,17.607,14.325,31.932,31.932,31.932H174.107z"/>
<path d="M512,469.203V83.32c0-22.026-26.585-40.038-79.015-53.538c-47.384-12.199-110.239-18.918-176.984-18.918
	c-35.383,0-69.601,1.872-101.705,5.564c-4.836,0.557-8.306,4.928-7.75,9.764c0.556,4.835,4.92,8.303,9.764,7.75
	c31.438-3.615,64.978-5.449,99.691-5.449c65.306,0,126.599,6.52,172.589,18.363c48.554,12.501,65.783,27.456,65.783,36.465v385.883
	c0,7.887-6.417,14.303-14.304,14.303H209.365c-4.868,0-8.815,3.947-8.815,8.815c0,4.868,3.947,8.815,8.815,8.815h270.701
	C497.674,501.135,512,486.811,512,469.203z"/>
<path d="M106.422,62.337c-4.088,0.852-7.015,4.454-7.015,8.629v92.779c0,4.869,3.947,8.815,8.815,8.815h115.645h64.269h0.023h115.62
	c4.868,0,8.815-3.945,8.815-8.815V70.966c0-4.175-2.929-7.777-7.014-8.629l-1.178-0.247C362.703,53.504,310,48.776,256.001,48.776
	c-53.998,0-106.701,4.728-148.401,13.315L106.422,62.337z M234.41,154.931c3.484-8.501,11.849-14.505,21.59-14.505
	c9.741,0,18.106,6.003,21.59,14.505H234.41z M117.036,78.187c1.513-0.291,3.065-0.566,4.606-0.849l19.47,22.946
	c1.743,2.054,4.226,3.111,6.725,3.111c2.016,0,4.042-0.688,5.699-2.093c3.712-3.15,4.168-8.712,1.018-12.424l-12.595-14.845
	c12.775-1.839,26.226-3.37,40.164-4.559l9.275,20.654c1.468,3.268,4.681,5.205,8.046,5.205c1.207,0,2.434-0.249,3.606-0.776
	c4.441-1.994,6.424-7.21,4.431-11.653l-6.65-14.81c17.936-1.115,36.465-1.694,55.172-1.694s37.236,0.579,55.172,1.694l-6.651,14.81
	c-1.994,4.441-0.011,9.658,4.43,11.653c1.173,0.527,2.4,0.776,3.606,0.776c3.365,0,6.578-1.937,8.046-5.205l9.275-20.654
	c13.938,1.189,27.388,2.718,40.164,4.559l-12.595,14.845c-3.15,3.713-2.694,9.275,1.019,12.424c1.657,1.406,3.682,2.093,5.698,2.093
	c2.499,0,4.982-1.057,6.726-3.111l19.469-22.946c1.54,0.281,3.092,0.557,4.605,0.849v76.743h-98.97
	c-3.417-15.516-15.663-27.75-31.179-31.167V84.369c0-4.868-3.947-8.815-8.815-8.815c-4.868,0-8.815,3.947-8.815,8.815v39.394
	c-15.514,3.418-27.751,15.654-31.168,31.168h-98.982C117.036,154.932,117.036,78.187,117.036,78.187z"/>
<path d="M43.977,227.619v202.733c0,15.326,12.469,27.794,27.794,27.794h368.457c15.327,0,27.794-12.469,27.794-27.794V227.619
	c0-15.326-12.469-27.794-27.794-27.794h-52.194c-4.868,0-8.815,3.947-8.815,8.815c0,4.868,3.947,8.815,8.815,8.815h52.194
	c5.606,0,10.165,4.56,10.165,10.165v202.733c0,5.606-4.56,10.165-10.165,10.165H71.771c-5.605,0-10.165-4.56-10.165-10.165V227.619
	c0-5.606,4.56-10.165,10.165-10.165h281.005c4.868,0,8.815-3.947,8.815-8.815c0-4.868-3.947-8.815-8.815-8.815H71.771
	C56.445,199.825,43.977,212.294,43.977,227.619z"/>
<g>
</g>
<g>
</g>
<g>
</g>
<g>
</g>
<g>
</g>
<g>
</g>
<g>
</g>
<g>
</g>
<g>
</g>
<g>
</g>
<g>
</g>
<g>
</g>
<g>
</g>
<g>
</g>
<g>
</g>
</svg>
